<?xml version="1.0" encoding="utf-8"?>
<!-- Generator: Adobe Illustrator 26.1.0, SVG Export Plug-In . SVG Version: 6.00 Build 0)  -->
<svg version="1.1" id="Layer_1" xmlns="http://www.w3.org/2000/svg" xmlns:xlink="http://www.w3.org/1999/xlink" x="0px" y="0px"
	 viewBox="0 0 451.6 427.4" style="enable-background:new 0 0 451.6 427.4;" xml:space="preserve">
<style type="text/css">
	.st0{fill:#000;}
	.st1{fill:#fff;}
</style>
<g id="Layer_2_00000064336976743357553340000009440875585809788301_">
</g>
<g id="Layer_1_00000109026588684563918740000014212178711476732861_">
	<g>
		<path class="st0" d="M155.6,327.9c-7.2,0-12.1,4.8-13.3,12.9h25.8C167.5,331.8,163,327.9,155.6,327.9z"/>
		<path class="st0" d="M213.6,328.5c-8.8,0-14,6.1-14,17.3v0.8c0,11.4,5.7,16.8,13.5,16.8c8.3,0,14.5-5.5,14.5-17.1v-0.8
			C227.5,334.2,222.3,328.5,213.6,328.5z"/>
		<path class="st0" d="M95.1,339.9H83.2v22.7H96c8.8,0,12.9-4,12.9-11.3v-0.4C108.8,343.6,104.8,339.9,95.1,339.9z"/>
		<path class="st0" d="M106.2,320.6v-0.4c0-6.7-3.9-9.6-12.3-9.6H83.2V331h10.9C102.8,331,106.2,327.9,106.2,320.6z"/>
		<path class="st0" d="M364.5,253.3H87.1C39,253.3,0,292.2,0,340.3l0,0c0,48.1,39,87.1,87.1,87.1h277.4c48.1,0,87.1-39,87.1-87.1
			l0,0C451.6,292.3,412.6,253.3,364.5,253.3z M121.8,352.2c0,13.2-8.7,19.8-24.2,19.8H70.3v-70.8h25.3c14.5,0,23.2,5.5,23.2,18.4
			v0.4c0,7-3.2,12.6-11.2,15c9.6,2.1,14.2,7.3,14.2,16.7L121.8,352.2L121.8,352.2z M180,348.7h-37.9c0.4,9.8,5.4,15.3,14.3,15.3
			c7.2,0,11-2.9,11.9-7.9h11.6c-1.7,10.9-10.5,16.8-23.8,16.8c-15.2,0-26.2-10-26.2-26.3v-0.8c0-16,11-26.7,25.7-26.7
			c12.9,0,24.5,7.6,24.5,26.1V348.7z M239.1,372h-12v-8.7c-2.8,5.2-9.4,9.7-17,9.7c-13,0-22.8-9.2-22.8-26v-0.8
			c0-16.5,9.8-27,23.3-27c8.4,0,13.7,3.9,16.5,9v-31.9h12L239.1,372L239.1,372z M282.2,330.6c-10.5,0.1-16.8,3.5-16.8,14.5V372h-12
			v-51.8h12v9.7c3.3-6.5,8.1-10.4,16.8-10.5V330.6z M304.9,372h-12v-51.8h12V372z M298.8,311.7c-4,0-7.1-3-7.1-6.8
			c0-4,3.2-6.9,7.1-6.9s7.1,3,7.1,6.9C305.9,308.7,302.8,311.7,298.8,311.7z M345.8,306.1c-1.4-0.5-3.3-0.9-5.5-0.9
			c-4.8,0-6.8,3.2-6.8,7.6v7.4h11.8v9h-11.8V372h-12v-42.8h-7v-9h7v-6.9c0-11.4,6.3-17.5,17.4-17.5c2.9,0,4.7,0.3,6.8,1L345.8,306.1
			L345.8,306.1z M381.6,371.6c-1.9,0.7-4.5,1.3-8.1,1.3c-10.3,0-15.6-5.5-15.6-15.3v-28.3h-6.9v-9h6.9v-11.4h12v11.4h11.4v9h-11.4
			v27.2c0,4.5,2.2,6.6,5.9,6.6c2.4,0,4.2-0.3,5.8-1V371.6z"/>
	</g>
	<path class="st1" d="M401.3,48.9c-1.7,0-3.2,1.4-3.2,3.1c0,7.8-6.3,14.1-14.2,14.1h-14.3c-1.7,0-3.2,1.4-3.2,3.1v14.3
		c0,7.8-6.3,14.1-14.2,14.1c-7.8,0-14.2-6.4-14.2-14.1V69.4c0-1.7-1.4-3.1-3.2-3.1s-3.2,1.4-3.2,3.1v14.3c0,11.3,9.2,20.5,20.5,20.5
		c11.3,0,20.5-9.2,20.5-20.5V72.5H384c11.3,0,20.5-9.2,20.5-20.5C404.4,50.3,403,48.9,401.3,48.9z"/>
	<g>
		<path class="st0" d="M352.4,0c-11.3,0-20.5,9.2-20.5,20.5v11.1h-11.2c-11.3,0-20.5,9.2-20.5,20.5c0,1.7,1.4,3.1,3.1,3.1
			c1.7,0,3.1-1.4,3.1-3.1c0-7.8,6.3-14.1,14.2-14.1h14.3c1.7,0,3.2-1.4,3.2-3.1V20.5c0-7.8,6.3-14.1,14.2-14.1
			c7.8,0,14.2,6.4,14.2,14.1v14.3c0,1.7,1.4,3.1,3.2,3.1s3.2-1.4,3.2-3.1V20.5C372.8,9.2,363.7,0,352.4,0z"/>
		<path class="st0" d="M14.1,85.1H3c-1.7,0-3,1.4-3,3v46.3c0,1.7,1.4,3,3,3H14c16.7,0,26.6-9.7,26.6-26v-0.6
			C40.6,94.7,30.7,85.1,14.1,85.1z M13.8,91.2c15.9,0,19.2,10.6,19.2,19.5v0.6c0,12.8-6.8,19.8-19.2,19.8H7.4V91.2H13.8z"/>
		<path class="st0" d="M64.1,98.5c-4.3,0.9-6.7,3.2-8.3,5.5v-1.7c0-2-1.6-3.6-3.6-3.6s-3.6,1.6-3.6,3.6v31.5c0,2,1.6,3.6,3.6,3.6
			s3.6-1.6,3.6-3.6v-17.6c0-7.1,2.7-10.3,9.4-11.2c1.7-0.2,2.9-1.6,2.9-3.4c0-1-0.4-1.9-1.2-2.5C66.1,98.6,65.1,98.3,64.1,98.5z"/>
		<path class="st0" d="M75.2,127.4c-2.9,0-5.2,2.3-5.2,5.2s2.3,5.2,5.2,5.2s5.2-2.3,5.2-5.2C80.4,129.8,78.1,127.4,75.2,127.4z"/>
		<path class="st0" d="M104.6,85.1H93.5c-1.7,0-3,1.4-3,3v46.3c0,1.7,1.4,3,3,3h10.9c16.7,0,26.6-9.7,26.6-26v-0.6
			C131.1,94.7,121.1,85.1,104.6,85.1z M104.2,91.2c15.9,0,19.2,10.6,19.2,19.5v0.6c0,12.8-6.8,19.8-19.2,19.8h-6.4V91.2H104.2z"/>
		<path class="st0" d="M154.6,98.5c-4.3,0.9-6.7,3.2-8.3,5.5v-1.7c0-2-1.6-3.6-3.6-3.6s-3.6,1.6-3.6,3.6v31.5c0,2,1.6,3.6,3.6,3.6
			s3.6-1.6,3.6-3.6v-17.6c0-7.1,2.7-10.3,9.4-11.2c1.7-0.2,2.9-1.6,2.9-3.4c0-1-0.4-1.9-1.2-2.5C156.5,98.6,155.5,98.3,154.6,98.5z"
			/>
		<path class="st0" d="M180.4,98.2c-11,0-19,8.3-19,19.7v0.6c0,11.4,8,19.6,18.9,19.6c11,0,19-8.3,19-19.7v-0.6
			C199.4,106.4,191.4,98.2,180.4,98.2z M192.1,117.9v0.5c0,8.2-4.6,13.5-11.6,13.5c-7.2,0-11.6-5.2-11.6-13.5v-0.6
			c0-8.4,4.5-13.6,11.6-13.6C187.5,104.3,192.1,109.6,192.1,117.9z"/>
		<path class="st0" d="M225.9,98.2c-5,0-9.5,2.7-12.1,5.7v-1.5c0-2-1.6-3.6-3.6-3.6s-3.6,1.6-3.6,3.6v44.5c0,2,1.6,3.6,3.6,3.6
			s3.6-1.6,3.6-3.6v-14.3c2.7,3.5,7.1,5.5,12.1,5.5c10.5,0,17.6-8,17.6-19.9v-0.6C243.5,106,236.5,98.2,225.9,98.2z M236.2,117.9
			v0.6c0,6.2-1.9,13.5-10.9,13.5c-7.6,0-11.7-4.8-11.7-13.5v-0.6c0-8.5,4.4-13.6,11.6-13.6C231.9,104.3,236.2,109.6,236.2,117.9z"/>
		<path class="st0" d="M254.6,98.8c-2,0-3.6,1.6-3.6,3.6v31.5c0,2,1.6,3.6,3.6,3.6s3.6-1.6,3.6-3.6v-31.5
			C258.1,100.4,256.5,98.8,254.6,98.8z"/>
		<path class="st0" d="M254.5,83.1c-2.5,0-4.5,2.1-4.5,4.5c0,2.5,2.1,4.5,4.5,4.5c2.5,0,4.5-2.1,4.5-4.5
			C259,85.2,256.9,83.1,254.5,83.1z"/>
		<path class="st0" d="M287,98.2c-5.5,0-9.4,2.4-11.4,5.1v-0.9c0-2-1.6-3.6-3.6-3.6s-3.6,1.6-3.6,3.6v31.5c0,2,1.6,3.6,3.6,3.6
			s3.6-1.6,3.6-3.6v-19.7c0-6.7,5-9.6,9.9-9.6c5.8,0,8.2,2.7,8.2,8.9v20.4c0,2,1.6,3.6,3.6,3.6s3.6-1.6,3.6-3.6v-20
			C300.7,100.9,293.2,98.2,287,98.2z"/>
	</g>
</g>
</svg>
