<svg xmlns="http://www.w3.org/2000/svg" width="604" height="616" viewBox="0 0 604 616" fill="none"><path d="M411.61 174C386.616 139.996 346.822 118 302 118C257.178 118 217.384 139.996 192.39 174H411.61Z" fill="black"></path><path d="M183.798 187.176C171.851 207.954 165 232.159 165 258C165 272.817 167.253 287.096 171.427 300.5C184.625 245.1 238.074 203.647 302 203.647C365.926 203.647 419.375 245.1 432.573 300.5C436.747 287.096 439 272.817 439 258C439 232.159 432.149 207.954 420.202 187.176H183.798Z" fill="black"></path><path d="M181.115 323.937C181.978 325.586 182.873 327.215 183.798 328.824H420.202C422.809 324.288 425.175 319.59 427.278 314.748C427.127 313.898 426.966 313.051 426.797 312.207C426.585 311.153 426.359 310.104 426.118 309.059H177.882C177.45 310.939 177.062 312.835 176.722 314.748C178.079 317.872 179.546 320.937 181.115 323.937Z" fill="black"></path><path d="M187.831 335.412C192.428 342.478 197.636 349.092 203.379 355.176H400.621C406.364 349.092 411.572 342.478 416.169 335.412H187.831Z" fill="black"></path><path d="M210.029 361.765C216.711 367.954 223.995 373.478 231.778 378.235H372.222C380.005 373.478 387.289 367.954 393.971 361.765H210.029Z" fill="black"></path><path d="M302 398C322.77 398 342.462 393.277 360.101 384.824H243.899C261.538 393.277 281.23 398 302 398Z" fill="black"></path><path d="M416.631 282.706C419.789 289.012 422.399 295.619 424.4 302.471H179.6C181.601 295.619 184.211 289.012 187.369 282.706H416.631Z" fill="black"></path><path d="M413.069 276.118C409.696 270.319 405.844 264.813 401.563 259.647H202.437C198.156 264.813 194.304 270.319 190.931 276.118H413.069Z" fill="black"></path><path d="M376.407 236.588C383.407 241.443 389.87 246.966 395.697 253.059H208.303C214.13 246.966 220.593 241.443 227.593 236.588H376.407Z" fill="black"></path><path d="M365.845 230C347.084 219.528 325.272 213.529 302 213.529C278.728 213.529 256.916 219.528 238.155 230H365.845Z" fill="black"></path><path d="M68.1378 497C63.4157 497 58.7601 496.5 54.171 495.5C49.6485 494.433 46.0238 492.967 43.2969 491.1C42.4323 490.5 42 489.967 42 489.5C42 489.033 42.133 488.633 42.3991 488.3L45.6912 483.1C46.0903 482.5 46.4561 482.2 46.7886 482.2C47.1211 482.2 47.5535 482.367 48.0855 482.7C50.5463 484.167 53.4062 485.367 56.6651 486.3C59.924 487.167 63.2162 487.6 66.5416 487.6C71.0642 487.6 74.4561 486.867 76.7174 485.4C79.0452 483.867 80.2091 481.433 80.2091 478.1C80.2091 476.1 79.7768 474.5 78.9122 473.3C78.0475 472.1 76.7839 471.067 75.1212 470.2C73.4585 469.333 70.7649 468.167 67.0404 466.7L64.7459 465.8C60.4228 464.067 56.8314 462.4 53.9715 460.8C51.1782 459.2 48.8504 457.1 46.9881 454.5C45.1259 451.9 44.1948 448.733 44.1948 445C44.1948 438.933 46.4893 434.267 51.0784 431C55.734 427.667 61.8195 426 69.3349 426C73.924 426 77.8813 426.433 81.2067 427.3C84.5986 428.167 87.525 429.5 89.9858 431.3C90.7839 431.9 91.183 432.467 91.183 433C91.183 433.4 91.0499 433.767 90.7839 434.1L87.5915 439.3C87.1925 439.9 86.8599 440.2 86.5939 440.2C86.3278 440.2 85.8955 440 85.297 439.6C81.0404 436.867 75.753 435.5 69.4347 435.5C65.2447 435.5 62.0855 436.267 59.9573 437.8C57.829 439.333 56.7649 441.767 56.7649 445.1C56.7649 447.167 57.1972 448.833 58.0618 450.1C58.9929 451.3 60.3231 452.333 62.0523 453.2C63.7815 454.067 66.5749 455.233 70.4323 456.7L72.9264 457.7C77.7815 459.633 81.5725 461.433 84.2993 463.1C87.0262 464.7 89.1212 466.733 90.5844 469.2C92.1141 471.6 92.8789 474.7 92.8789 478.5C92.8789 484.233 90.7174 488.767 86.3944 492.1C82.1378 495.367 76.0523 497 68.1378 497Z" fill="black"></path><path d="M164.567 497C158.049 497 152.861 495.033 149.004 491.1C145.146 487.1 143.218 481.5 143.218 474.3C143.218 468.7 144.448 463.767 146.909 459.5C149.37 455.167 152.861 451.833 157.384 449.5C161.973 447.167 167.294 446 173.346 446C181.793 446 188.942 448 194.795 452V492.8C194.795 493.8 194.562 494.5 194.097 494.9C193.698 495.3 192.966 495.5 191.902 495.5H186.415C185.683 495.5 185.118 495.367 184.719 495.1C184.386 494.767 184.154 494.267 184.021 493.6L183.223 489.7C181.161 492.233 178.6 494.1 175.541 495.3C172.548 496.433 168.89 497 164.567 497ZM169.356 487.9C172.88 487.9 175.973 486.867 178.633 484.8C181.36 482.733 182.724 480 182.724 476.6V457.1C181.327 456.367 179.897 455.867 178.434 455.6C177.037 455.267 175.308 455.1 173.246 455.1C167.992 455.1 163.769 456.767 160.576 460.1C157.384 463.433 155.788 468.033 155.788 473.9C155.788 478.7 156.885 482.233 159.08 484.5C161.341 486.767 164.766 487.9 169.356 487.9Z" fill="black"></path><path d="M212.377 495.5C211.046 495.5 210.082 495.2 209.483 494.6C208.885 494 208.586 493.1 208.586 491.9V450.2C208.586 449.2 208.752 448.5 209.084 448.1C209.417 447.7 210.115 447.5 211.179 447.5H216.866C217.597 447.5 218.13 447.667 218.462 448C218.795 448.267 218.994 448.767 219.061 449.5L219.36 453.1C223.284 448.367 228.438 446 234.823 446C237.749 446 239.978 446.5 241.507 447.5C241.906 447.767 242.139 448.067 242.206 448.4C242.339 448.667 242.339 449 242.206 449.4L240.41 455.4C240.21 456.067 239.845 456.4 239.312 456.4L238.514 456.2C236.918 455.467 235.089 455.1 233.027 455.1C229.635 455.1 226.842 456.067 224.647 458C222.453 459.867 221.355 462.433 221.355 465.7V491.9C221.355 493.1 221.056 494 220.457 494.6C219.925 495.2 218.961 495.5 217.564 495.5H212.377Z" fill="black"></path><path d="M274.131 497C268.478 497 264.221 495.433 261.362 492.3C258.502 489.167 257.072 484.833 257.072 479.3V456.9H251.385C250.055 456.9 249.157 456.667 248.692 456.2C248.293 455.733 248.093 454.867 248.093 453.6V450.9C248.093 449.633 248.293 448.767 248.692 448.3C249.157 447.767 250.055 447.5 251.385 447.5H257.072V442C257.072 440.6 257.305 439.3 257.77 438.1C258.302 436.833 259.1 435.267 260.164 433.4C260.563 432.6 260.929 432.1 261.262 431.9C261.661 431.633 262.326 431.5 263.257 431.5H266.549C267.746 431.5 268.578 431.8 269.043 432.4C269.575 432.933 269.841 433.767 269.841 434.9V447.5H288.031C289.362 447.5 290.226 447.767 290.625 448.3C291.091 448.767 291.324 449.633 291.324 450.9V453.6C291.324 454.867 291.091 455.733 290.625 456.2C290.226 456.667 289.362 456.9 288.031 456.9H269.841V478.9C269.841 481.967 270.373 484.2 271.438 485.6C272.502 486.933 274.331 487.6 276.924 487.6C278.454 487.6 279.751 487.433 280.815 487.1C281.879 486.7 283.043 486.067 284.307 485.2C284.639 484.933 285.005 484.8 285.404 484.8C285.803 484.8 286.202 485.1 286.601 485.7L289.495 490.5C289.761 490.833 289.894 491.2 289.894 491.6C289.894 492.067 289.561 492.533 288.896 493C284.773 495.667 279.851 497 274.131 497Z" fill="black"></path><path d="M303.365 495.5C302.035 495.5 301.07 495.2 300.472 494.6C299.94 494 299.673 493.1 299.673 491.9V431.2C299.673 429.933 299.94 429 300.472 428.4C301.07 427.8 302.035 427.5 303.365 427.5H332.196C339.113 427.5 344.334 429.167 347.859 432.5C351.45 435.833 353.246 440.333 353.246 446C353.246 449.2 352.448 452.067 350.852 454.6C349.255 457.133 347.027 459 344.168 460.2C351.55 462.533 355.241 467.733 355.241 475.8C355.241 479.533 354.377 482.9 352.647 485.9C350.985 488.833 348.457 491.167 345.065 492.9C341.674 494.633 337.484 495.5 332.495 495.5H303.365ZM330.4 455.9C333.659 455.9 336.153 455.067 337.883 453.4C339.678 451.733 340.576 449.4 340.576 446.4C340.576 443.133 339.745 440.8 338.082 439.4C336.486 437.933 333.892 437.2 330.301 437.2H312.443V455.9H330.4ZM331.897 485.8C335.555 485.8 338.248 484.867 339.978 483C341.707 481.067 342.571 478.6 342.571 475.6C342.571 472.133 341.507 469.533 339.379 467.8C337.317 466 334.424 465.1 330.7 465.1H312.443V485.8H331.897Z" fill="black"></path><path d="M360.214 495.5C359.083 495.5 358.518 495 358.518 494C358.518 493.6 358.618 493.167 358.817 492.7L385.154 430.1C385.553 429.1 385.986 428.433 386.451 428.1C386.917 427.7 387.582 427.5 388.447 427.5H393.934C394.865 427.5 395.53 427.7 395.929 428.1C396.394 428.433 396.827 429.1 397.226 430.1L423.563 492.7C423.763 493.167 423.862 493.6 423.862 494C423.862 495 423.297 495.5 422.166 495.5H413.487C412.622 495.5 411.991 495.4 411.592 495.2C411.259 494.933 410.926 494.433 410.594 493.7L404.907 479.7H377.373L371.786 493.7C371.454 494.433 371.088 494.933 370.689 495.2C370.356 495.4 369.758 495.5 368.893 495.5H360.214ZM401.715 470.4L391.14 444.2L380.565 470.4H401.715Z" fill="black"></path><path d="M439.365 495.5C438.035 495.5 437.071 495.2 436.472 494.6C435.94 494 435.674 493.1 435.674 491.9V431.2C435.674 429.933 435.94 429 436.472 428.4C437.071 427.8 438.068 427.5 439.465 427.5H444.054C444.985 427.5 445.717 427.633 446.249 427.9C446.781 428.167 447.313 428.7 447.845 429.5L480.767 475.3V431.2C480.767 429.933 481.033 429 481.565 428.4C482.163 427.8 483.128 427.5 484.458 427.5H489.745C491.076 427.5 492.04 427.8 492.638 428.4C493.237 429 493.536 429.933 493.536 431.2V491.9C493.536 493.1 493.237 494 492.638 494.6C492.106 495.2 491.142 495.5 489.745 495.5H485.057C484.125 495.5 483.427 495.4 482.962 495.2C482.496 494.933 481.964 494.4 481.365 493.6L448.444 447.9V491.9C448.444 493.1 448.144 494 447.546 494.6C447.014 495.2 446.049 495.5 444.653 495.5H439.365Z" fill="black"></path><path d="M511.019 495.5C509.689 495.5 508.724 495.2 508.126 494.6C507.594 494 507.328 493.1 507.328 491.9V431.2C507.328 429.933 507.594 429 508.126 428.4C508.724 427.8 509.689 427.5 511.019 427.5H516.306C517.637 427.5 518.601 427.8 519.2 428.4C519.798 429 520.097 429.933 520.097 431.2V491.9C520.097 493.1 519.798 494 519.2 494.6C518.667 495.2 517.703 495.5 516.306 495.5H511.019ZM550.026 495.5C549.295 495.5 548.729 495.433 548.33 495.3C547.998 495.167 547.632 494.867 547.233 494.4L523.19 465.4C522.591 464.667 522.159 464.033 521.893 463.5C521.627 462.967 521.494 462.267 521.494 461.4C521.494 460.533 521.594 459.867 521.793 459.4C522.059 458.933 522.525 458.267 523.19 457.4L546.634 428.7C547.033 428.167 547.432 427.833 547.831 427.7C548.23 427.567 548.862 427.5 549.727 427.5H558.905C559.371 427.5 559.736 427.633 560.002 427.9C560.268 428.167 560.401 428.5 560.401 428.9C560.401 429.433 560.202 429.9 559.803 430.3L533.964 461.4L560.401 492.7C560.8 493.1 561 493.567 561 494.1C561 494.5 560.867 494.833 560.601 495.1C560.335 495.367 559.969 495.5 559.504 495.5H550.026Z" fill="black"></path><path d="M122.737 497C117.083 497 112.827 495.433 109.967 492.3C107.107 489.167 105.677 484.833 105.677 479.3V456.9H99.9907C98.6605 456.9 97.7627 456.667 97.2971 456.2C96.898 455.733 96.6985 454.867 96.6985 453.6V450.9C96.6985 449.633 96.898 448.767 97.2971 448.3C97.7627 447.767 98.6605 447.5 99.9907 447.5H105.677V442C105.677 440.6 105.91 439.3 106.376 438.1C106.908 436.833 107.706 435.267 108.77 433.4C109.169 432.6 109.535 432.1 109.867 431.9C110.266 431.633 110.931 431.5 111.862 431.5H115.155C116.352 431.5 117.183 431.8 117.649 432.4C118.181 432.933 118.447 433.767 118.447 434.9V447.5H136.637C137.967 447.5 138.832 447.767 139.231 448.3C139.696 448.767 139.929 449.633 139.929 450.9V453.6C139.929 454.867 139.696 455.733 139.231 456.2C138.832 456.667 137.967 456.9 136.637 456.9H118.447V478.9C118.447 481.967 118.979 484.2 120.043 485.6C121.107 486.933 122.936 487.6 125.53 487.6C127.06 487.6 128.357 487.433 129.421 487.1C130.485 486.7 131.649 486.067 132.912 485.2C133.245 484.933 133.611 484.8 134.01 484.8C134.409 484.8 134.808 485.1 135.207 485.7L138.1 490.5C138.366 490.833 138.499 491.2 138.499 491.6C138.499 492.067 138.167 492.533 137.501 493C133.378 495.667 128.456 497 122.737 497Z" fill="black"></path></svg>